<svg width="244" height="224" viewBox="0 0 244 224" fill="none" xmlns="http://www.w3.org/2000/svg">
<path d="M105.838 57.4652C115.386 69.9681 127.169 66.3357 140.703 68.6971C147.559 70.1838 152.755 66.0354 155.831 60.6604C156.486 59.9651 156.849 59.1007 156.94 58.2359C157.237 55.5571 155.007 53.381 152.979 51.8169C150.184 49.7243 146.757 47.9894 143.601 46.4237C138.808 37.7461 131.392 32.862 120.629 33.5425C103.021 24.4244 82.6065 21.7786 63.0391 26.0116C43.1783 30.3073 25.9023 41.3999 14.463 57.0788C13.1745 58.8068 11.9536 60.5349 10.8454 62.3687C-8.40092 93.985 0.812702 134.672 33.0675 156.153C25.3063 140.615 21.7897 123.079 24.522 106.016C26.8448 91.2728 33.8371 77.1274 45.8995 67.2719C53.3314 61.1227 62.2492 57.1485 71.9984 55.4328C83.3049 53.4452 94.9002 54.4958 105.838 57.4652ZM219.413 166.994C231.568 155.746 239.756 141.708 242.284 125.847C252.03 64.1761 177.763 28.6049 143.638 98.4682C140.289 105.214 137.481 112.151 134.786 119.087C132 126.362 129.282 133.741 126.496 140.931C124.073 147.256 121.559 153.497 118.775 159.738C116.263 165.282 113.57 170.932 110.403 176.202C105.835 183.663 99.0532 192.598 89.8666 195.264C82.8244 197.258 75.7654 195.243 69.5657 191.943C58.9021 186.295 48.8094 176.027 41.1285 167.261C36.8922 210.017 78.5917 237.566 119.711 214.294C123.143 212.4 126.395 210.063 129.377 207.557C142.931 195.953 150.92 179.214 156.99 163.274C160.795 153.386 163.878 143.158 167.322 133.101C168.818 128.588 170.404 123.992 172.26 119.585C173.845 115.685 175.611 111.784 177.647 108.138C180.27 103.796 184.066 99.8984 188.718 97.4791C192.421 95.6702 196.777 94.6429 200.949 95.767C205.031 96.9966 207.734 100.038 209.285 103.669C211.894 109.749 211.589 117.554 210.654 123.966C206.167 153.536 186.185 179.012 157.399 191.987C180.684 191.156 202.966 182.159 219.413 166.994ZM90.9553 21.2001C130.674 14.3174 171.378 28.237 196.921 57.5137C198.036 4.77463 126.55 -19.6958 90.9553 21.2001Z" fill="#FFFEFE"/>
<path d="M184.938 172.636C179.399 192.262 163.435 207.537 143.148 212.332C122.536 223.577 97.8832 226.632 75.3811 219.397C58.4177 213.987 41.5411 204.482 31.1806 187.636C9.74283 161.731 3.66118 123.796 26.5325 97C19.9296 136.165 40.3683 174.991 76.9016 192.431C113.413 209.786 157.353 201.767 184.938 172.636Z" fill="#C9C9C9"/>
<path d="M106.553 60.0134C115.631 72.325 126.806 68.7272 139.651 71.0356C146.159 72.4914 151.083 68.3944 153.995 63.0913C154.616 62.405 154.958 61.5523 155.044 60.6997C155.322 58.0585 153.203 55.9165 151.276 54.3775C148.621 52.3186 145.367 50.6133 142.37 49.0744C137.81 40.5269 130.767 35.7229 120.555 36.4092C103.834 27.4458 84.4596 24.8671 65.8983 29.068C47.0587 33.3313 30.6811 44.2911 19.8483 59.7638C18.628 61.4692 17.4719 63.1745 16.4229 64.9838C-1.79585 96.1788 7.0031 136.275 37.6389 157.404C30.2529 142.098 26.8918 124.816 29.4608 107.991C31.6445 93.4544 38.2598 79.4998 49.692 69.767C56.7354 63.6944 65.1918 59.7638 74.4404 58.0585C85.1661 56.0828 96.1702 57.1019 106.553 60.0134ZM214.474 167.823C225.992 156.718 233.742 142.867 236.119 127.228C245.281 66.4188 174.761 31.4596 142.477 100.38C139.309 107.035 136.654 113.877 134.106 120.719C131.473 127.894 128.904 135.172 126.271 142.264C123.98 148.503 121.604 154.659 118.97 160.815C116.594 166.284 114.046 171.858 111.049 177.057C106.725 184.419 100.302 193.237 91.5887 195.878C84.9092 197.854 78.2083 195.878 72.3209 192.634C62.1946 187.081 52.6036 176.974 45.3032 168.343C41.3426 210.498 80.9486 237.596 119.934 214.595C123.188 212.723 126.271 210.415 129.097 207.94C141.942 196.481 149.499 179.968 155.237 164.246C158.833 154.493 161.745 144.406 164.999 134.486C166.412 130.036 167.911 125.502 169.666 121.156C171.165 117.308 172.835 113.461 174.761 109.863C177.245 105.579 180.841 101.731 185.252 99.3399C188.763 97.5513 192.894 96.5323 196.855 97.6345C200.73 98.8407 203.299 101.835 204.776 105.412C207.26 111.402 206.981 119.097 206.104 125.419C201.886 154.576 182.961 179.719 155.665 192.55C177.759 191.698 198.889 182.797 214.474 167.823ZM92.3808 24.2847C130.06 17.4427 168.703 31.1061 192.98 59.9302C193.965 7.93859 126.099 -16.0815 92.3808 24.2847Z" fill="#1A1A1A"/>
</svg>
